HIERARCHY
ROOT Hips
{
	OFFSET 0.000000 0.000000 0.000000
	CHANNELS 6 Xposition Yposition Zposition Xrotation Yrotation Zrotation
	JOINT LeftUpLeg_virtual
	{
		OFFSET 0.000000 0.000000 0.000000
		CHANNELS 3 Xrotation Yrotation Zrotation
		JOINT LeftUpLeg
		{
			OFFSET 13.026900 -6.336304 -1.092800
			CHANNELS 3 Xrotation Yrotation Zrotation
			JOINT LeftLeg
			{
				OFFSET 0.524474 -46.096886 9.782700
				CHANNELS 3 Xrotation Yrotation Zrotation
				JOINT LeftFoot
				{
					OFFSET -0.524474 -53.427422 -12.948200
					CHANNELS 3 Xrotation Yrotation Zrotation
					JOINT LeftToeBase
					{
						OFFSET 0.192200 -14.009700 16.364100
						CHANNELS 3 Xrotation Yrotation Zrotation
						JOINT LeftToe_End
						{
							OFFSET -1.784700 -0.561700 9.474800
							CHANNELS 3 Xrotation Yrotation Zrotation
							End Site
							{
								OFFSET 0 0 0
							}
						}
					}
				}
			}
		}
	}
	JOINT RightUpLeg_virtual
	{
		OFFSET 0.000000 0.000000 0.000000
		CHANNELS 3 Xrotation Yrotation Zrotation
		JOINT RightUpLeg
		{
			OFFSET -12.883000 -6.336304 -1.092800
			CHANNELS 3 Xrotation Yrotation Zrotation
			JOINT RightLeg
			{
				OFFSET -0.524587 -46.096825 9.782800
				CHANNELS 3 Xrotation Yrotation Zrotation
				JOINT RightFoot
				{
					OFFSET 0.524587 -53.427383 -12.948300
					CHANNELS 3 Xrotation Yrotation Zrotation
					JOINT RightToeBase
					{
						OFFSET -0.192200 -14.009700 16.364100
						CHANNELS 3 Xrotation Yrotation Zrotation
						JOINT RightToe_End
						{
							OFFSET 1.784700 -0.561700 9.474800
							CHANNELS 3 Xrotation Yrotation Zrotation
							End Site
							{
								OFFSET 0 0 0
							}
						}
					}
				}
			}
		}
	}
	JOINT Spine_virtual
	{
		OFFSET 0.000000 0.000000 0.000000
		CHANNELS 3 Xrotation Yrotation Zrotation
		JOINT Spine
		{
			OFFSET 0.072000 7.257294 -0.789700
			CHANNELS 3 Xrotation Yrotation Zrotation
			JOINT Spine1
			{
				OFFSET 0.000000 12.508769 -0.658067
				CHANNELS 3 Xrotation Yrotation Zrotation
				JOINT Spine1_split
				{
					OFFSET 0.000000 12.508769 -0.658067
					CHANNELS 3 Xrotation Yrotation Zrotation
					JOINT Spine2
					{
						OFFSET 0.000000 12.508769 -0.658067
						CHANNELS 3 Xrotation Yrotation Zrotation
						JOINT Neck_virtual
						{
							OFFSET 0.000000 0.000000 0.000000
							CHANNELS 3 Xrotation Yrotation Zrotation
							JOINT Neck
							{
								OFFSET 0.000000 14.033295 7.520400
								CHANNELS 3 Xrotation Yrotation Zrotation
								JOINT Head
								{
									OFFSET 0.000000 8.198502 5.703100
									CHANNELS 3 Xrotation Yrotation Zrotation
									JOINT HeadTop_End
									{
										OFFSET 0.000000 17.760803 13.332701
										CHANNELS 3 Xrotation Yrotation Zrotation
										End Site
										{
											OFFSET 0 0 0
										}
									}
								}
							}
						}
						JOINT LeftShoulder_virtual
						{
							OFFSET 0.000000 0.000000 0.000000
							CHANNELS 3 Xrotation Yrotation Zrotation
							JOINT LeftShoulder
							{
								OFFSET 6.292450 5.785301 -0.669000
								CHANNELS 3 Xrotation Yrotation Zrotation
								JOINT LeftShoulder_split
								{
									OFFSET 6.292450 5.785301 -0.669000
									CHANNELS 3 Xrotation Yrotation Zrotation
									JOINT LeftArm
									{
										OFFSET 13.907140 -6.093903 1.965100
										CHANNELS 3 Xrotation Yrotation Zrotation
										JOINT LeftForeArm
										{
											OFFSET 34.140198 0.000000 0.000000
											CHANNELS 3 Xrotation Yrotation Zrotation
											JOINT LeftHand
											{
												OFFSET 40.960209 0.000000 0.000000
												CHANNELS 3 Xrotation Yrotation Zrotation
												End Site
												{
													OFFSET 0 0 0
												}
											}
										}
									}
								}
							}
						}
						JOINT RightShoulder_virtual
						{
							OFFSET 0.000000 0.000000 0.000000
							CHANNELS 3 Xrotation Yrotation Zrotation
							JOINT RightShoulder
							{
								OFFSET -6.292450 5.785301 -0.669000
								CHANNELS 3 Xrotation Yrotation Zrotation
								JOINT RightShoulder_split
								{
									OFFSET -6.292450 5.785301 -0.669000
									CHANNELS 3 Xrotation Yrotation Zrotation
									JOINT RightArm
									{
										OFFSET -13.907140 -6.093903 1.965100
										CHANNELS 3 Xrotation Yrotation Zrotation
										JOINT RightForeArm
										{
											OFFSET -34.140198 0.000000 0.000000
											CHANNELS 3 Xrotation Yrotation Zrotation
											JOINT RightHand
											{
												OFFSET -40.960209 0.000000 0.000000
												CHANNELS 3 Xrotation Yrotation Zrotation
												End Site
												{
													OFFSET 0 0 0
												}
											}
										}
									}
								}
							}
						}
					}
				}
			}
		}
	}
}
MOTION
Frames: 11
Frame Time: 0.03333333
235.469574 48.960220 -44.234135 0.000000 0.000000 0.000000 -123.858814 -16.179046 57.083986 -65.808128 11.462788 0.773925 102.258211 -8.985232 -0.173652 -0.934686 5.845694 -2.403049 9.440428 -0.412874 1.368777 0.000000 0.000000 0.000000 -124.763391 -20.718648 54.173065 -83.939220 10.017862 15.005407 58.007635 1.507601 1.022868 0.920928 5.965292 4.185926 -15.392253 0.137491 0.721490 0.000000 0.000000 0.000000 -133.432363 -19.103443 67.283818 10.201332 7.029374 4.183522 23.330099 5.533385 1.823299 -1.120267 2.069590 2.091931 0.000000 0.000000 0.000000 20.134974 5.469823 1.004877 52.777691 -4.316561 -10.438765 -23.404058 -14.261936 11.993243 0.000000 0.000000 0.000000 22.268857 6.784237 1.971032 2.857499 0.689480 5.106170 8.338914 -6.942545 0.632907 -35.455765 -18.904256 -5.259468 175.729033 -43.156117 178.219539 0.000000 0.000000 0.000000 18.530173 5.545635 2.937849 -1.635172 -4.486736 -2.074942 11.067913 -4.737407 6.925195 -76.611015 3.182669 46.914452 -164.290461 62.359340 158.946630 0.000000 0.000000 0.000000 
244.138504 41.767166 -45.335476 0.000000 0.000000 0.000000 -126.194288 -4.781719 65.905779 -64.483741 25.087261 3.362191 95.061070 -3.078085 -2.964819 -3.825548 13.015083 1.585670 8.055499 -0.557921 1.193131 0.000000 0.000000 0.000000 -124.985823 -9.475341 60.183911 -83.651021 9.061277 14.667558 63.314481 -0.789866 3.330152 -4.873629 5.467533 5.379706 -14.097471 0.373248 0.227411 0.000000 0.000000 0.000000 -134.627318 -9.531145 76.787029 10.633612 5.407686 3.756988 22.927130 5.935272 2.449706 -0.253493 0.480226 2.438121 0.000000 0.000000 0.000000 19.346859 6.015568 1.581456 51.713473 -3.978280 -12.542640 -19.957884 -11.545244 13.009156 0.000000 0.000000 0.000000 22.444543 6.717780 2.451036 2.108200 2.834247 2.889826 7.932061 -6.590206 -1.287617 -23.175016 -22.710241 -9.566772 173.276681 -47.466072 176.305105 0.000000 0.000000 0.000000 18.126950 5.899211 3.942200 -2.386828 -5.036073 -3.981497 10.194531 -0.781719 5.306991 -61.181419 -2.323388 45.117638 -154.031639 74.010980 149.424759 0.000000 0.000000 0.000000 
252.531555 35.087788 -46.345371 0.000000 0.000000 0.000000 -130.863761 5.449887 77.341756 -65.957238 42.341797 6.771048 90.893330 5.413459 -3.905077 -7.708793 18.698124 7.567017 4.412342 -0.634355 1.149298 0.000000 0.000000 0.000000 -126.772819 1.251182 67.308195 -80.825166 7.260550 13.144031 65.453095 -3.488818 5.791293 -9.618560 3.678752 5.935326 -12.312172 0.632834 -0.372507 0.000000 0.000000 0.000000 -137.604338 -0.843837 86.953294 11.279299 3.923976 2.720898 22.210684 6.263103 2.826537 0.300230 -0.954871 2.361100 0.000000 0.000000 0.000000 19.185685 6.456596 2.016461 49.643437 -3.155812 -13.203624 -18.487370 -10.384955 13.966170 0.000000 0.000000 0.000000 22.764862 6.651742 2.751216 1.444471 3.430592 -0.458913 7.348242 -4.312184 -1.225499 -14.269504 -24.072863 -12.213829 170.911714 -54.170657 173.483308 0.000000 0.000000 0.000000 17.930295 6.211177 4.814214 -2.931134 -3.705620 -4.780123 9.175844 3.585161 4.134837 -47.596494 -2.636905 43.420619 -54.019000 82.465580 50.383454 0.000000 0.000000 0.000000 
260.693115 30.116268 -46.685940 0.000000 0.000000 0.000000 -137.423502 14.326493 90.748154 -71.895958 57.971162 11.296505 91.364517 13.563128 -2.700159 -11.041484 21.227919 13.259108 0.111138 -0.614217 1.205418 0.000000 0.000000 0.000000 -130.311649 10.836146 75.561830 -75.304188 6.241010 11.230887 64.435458 -6.516079 7.717224 -12.867649 1.139145 5.291316 -10.731959 0.830166 -0.740074 0.000000 0.000000 0.000000 -142.474918 7.025454 98.335033 11.950648 2.926870 1.238269 21.250047 6.598504 2.909522 0.053113 -1.569581 1.904122 0.000000 0.000000 0.000000 19.581732 6.863771 2.209980 46.405822 -1.564494 -11.886674 -19.564349 -10.699882 15.005080 0.000000 0.000000 0.000000 23.020301 6.747298 2.799779 0.837971 2.507982 -4.074841 6.335917 -2.036694 0.422679 -7.606300 -22.994235 -13.684352 168.253036 -62.233685 169.519735 0.000000 0.000000 0.000000 17.741684 6.475919 5.389385 -3.318238 -1.519216 -4.579003 8.822265 7.295349 2.900955 -37.562653 -0.194682 40.475926 -10.212557 64.225198 7.733483 0.000000 0.000000 0.000000 
269.029236 27.672947 -47.541149 0.000000 0.000000 0.000000 -145.704013 20.748154 104.971162 -81.540164 68.524624 17.054625 95.704064 18.677125 -0.243065 -12.805762 20.105196 15.456219 -4.499673 -0.436327 1.432791 0.000000 0.000000 0.000000 -136.347952 18.606907 85.520908 -68.487058 6.774078 9.463074 61.464674 -8.764202 8.189105 -13.908358 -0.522629 4.217235 -9.956125 1.089980 -0.767112 0.000000 0.000000 0.000000 -149.145049 13.218518 109.827823 12.444276 2.662852 -0.284994 20.137064 6.969872 2.829600 -0.530398 -1.905463 1.928957 0.000000 0.000000 0.000000 20.394195 7.209110 2.126898 41.582789 0.675647 -8.976148 -23.001950 -11.666007 15.967314 0.000000 0.000000 0.000000 22.991909 7.074996 2.644668 0.168102 0.180116 -7.156636 4.109977 -0.151597 1.361962 -2.445654 -20.986164 -14.503512 164.076553 -70.300132 163.528048 0.000000 0.000000 0.000000 17.510522 6.707244 5.626534 -3.509650 0.689836 -3.489378 8.645361 9.162582 1.106167 -31.598535 2.128635 36.842385 -3.643291 46.804510 2.339184 0.000000 0.000000 0.000000 
277.697357 28.161667 -48.182629 0.000000 0.000000 0.000000 -154.750790 24.959417 118.526171 -84.253409 74.648176 15.606656 101.711414 21.000617 1.633953 -15.469771 16.184760 15.662717 -8.071012 -0.227429 1.429455 0.000000 0.000000 0.000000 -144.675851 24.603783 97.438516 -63.078313 9.155426 7.971242 58.116618 -9.378072 7.159404 -11.557927 -0.749251 4.364580 -11.247891 1.392909 -0.535286 0.000000 0.000000 0.000000 -156.998537 17.546365 121.196188 12.832864 3.157338 -1.573384 19.163861 7.306678 2.717606 -1.260572 -2.136265 2.210752 0.000000 0.000000 0.000000 21.612990 7.531614 1.872361 35.211073 3.261747 -5.909530 -28.255991 -12.123611 16.685524 0.000000 0.000000 0.000000 22.741916 7.516920 2.467641 -0.562130 -2.747009 -9.248444 2.060225 1.954973 0.585449 2.249055 -19.435259 -14.124540 155.286168 -77.793368 152.686311 0.000000 0.000000 0.000000 17.243453 6.876840 5.683029 -3.556605 2.346437 -2.041985 8.911541 10.248619 -1.412406 -30.904816 2.155231 34.041717 -1.227552 35.174282 0.946425 0.000000 0.000000 0.000000 
286.300537 31.089924 -48.406757 0.000000 0.000000 0.000000 -163.708952 27.106115 130.766827 -64.443245 76.254199 -6.718576 106.998506 19.912686 3.023662 -20.076981 10.524275 13.298266 -11.393371 -0.083215 1.411170 0.000000 0.000000 0.000000 -154.610484 28.357036 110.824225 -61.242597 12.514442 6.720972 57.178082 -7.712574 5.042327 -5.639236 1.003634 6.879460 -14.560034 1.726217 -0.234527 0.000000 0.000000 0.000000 -165.291589 19.783817 132.316228 13.031288 4.294859 -2.193913 18.496731 7.634992 2.702821 -1.561479 -2.187068 2.534915 0.000000 0.000000 0.000000 23.117822 7.867033 1.611362 27.955580 6.375460 -4.484443 -34.567167 -10.851490 16.870492 0.000000 0.000000 0.000000 22.695534 7.955928 2.413269 -1.261172 -5.647637 -10.026189 0.714868 4.505438 -1.359297 6.096685 -19.149163 -12.671573 119.658945 -84.272513 115.285260 0.000000 0.000000 0.000000 17.046612 7.017576 5.691921 -3.472902 3.674471 -0.679385 9.504671 10.878751 -3.969371 -35.053668 -0.169450 32.965075 -0.126587 29.358858 0.673871 0.000000 0.000000 0.000000 
294.470001 34.965893 -49.138264 0.000000 0.000000 0.000000 -171.927268 27.380978 141.527831 -35.709790 70.795450 -34.515675 110.938712 15.953889 3.907809 -28.121269 3.813364 9.952172 -14.867773 -0.321672 1.614658 0.000000 0.000000 0.000000 -164.704876 29.974504 124.865816 -63.485857 15.387101 5.872843 60.348164 -4.576036 2.510622 1.865720 4.512640 10.842020 -18.248886 1.987936 0.006699 0.000000 0.000000 0.000000 -172.815397 19.979039 142.328233 13.068473 5.811823 -2.014626 18.198718 7.927924 2.828500 -1.362432 -2.225375 2.801083 0.000000 0.000000 0.000000 24.742355 8.152037 1.487262 20.672281 10.139243 -5.976249 -40.471821 -6.755216 16.693501 0.000000 0.000000 0.000000 22.890525 8.249037 2.586233 -1.823232 -8.095646 -9.587905 -0.372189 7.740793 -3.747606 7.473500 -20.073835 -10.870775 37.302146 -81.836144 31.865230 0.000000 0.000000 0.000000 17.129218 7.175349 5.763470 -3.194119 4.927579 0.515740 9.393948 10.281109 -5.271295 -42.913556 -4.609985 33.315491 0.225753 27.521255 0.993651 0.000000 0.000000 0.000000 
302.213318 38.491825 -49.694714 0.000000 0.000000 0.000000 -178.498361 26.696479 150.795919 -17.272886 59.255948 -47.166462 113.514288 9.738620 3.769302 -38.791721 -2.983714 7.567671 -19.005082 -1.354712 2.193381 0.000000 0.000000 0.000000 -173.439950 29.519333 138.221473 -68.781835 17.034449 5.014427 68.054448 -1.856543 0.349807 8.621020 7.792156 14.437654 -20.282170 2.026355 0.152569 0.000000 0.000000 0.000000 -178.882217 19.064643 151.365175 12.929505 7.291112 -1.233210 18.222574 8.163445 3.062127 -0.473660 -2.384404 1.858730 0.000000 0.000000 0.000000 26.121058 8.400624 1.615536 14.650216 14.656227 -10.642019 -45.082377 -0.139224 16.340092 0.000000 0.000000 0.000000 23.416112 8.347015 2.927254 -2.186271 -9.160867 -8.406383 -1.031231 10.834695 -5.474520 5.971227 -22.030603 -9.762860 16.522419 -73.690419 11.140990 0.000000 0.000000 0.000000 17.595156 7.295992 5.885992 -2.858690 6.244061 1.188752 8.934185 8.618678 -5.161981 -51.937564 -9.569717 33.574048 0.194768 27.651410 1.624839 0.000000 0.000000 0.000000 
309.083069 40.841270 -51.290287 0.000000 0.000000 0.000000 176.821098 25.087227 159.002651 -5.973056 45.157222 -47.616261 115.109970 0.503265 3.874007 -48.039019 -9.269182 4.020619 -27.384889 -3.458103 3.776480 0.000000 0.000000 0.000000 -179.525758 27.713769 149.386619 -75.566447 16.747207 3.644967 78.081042 -0.777093 -0.995131 12.974024 9.376974 16.327579 -18.936846 1.904662 0.153428 0.000000 0.000000 0.000000 176.912486 17.569256 158.862386 12.566477 8.454441 -0.046019 18.293403 8.329033 3.370251 0.723200 -2.356018 0.608123 0.000000 0.000000 0.000000 26.827684 8.577836 1.989935 10.630731 19.468225 -17.618505 -47.971653 7.847783 16.000206 0.000000 0.000000 0.000000 24.030853 8.300125 3.367892 -2.387043 -8.854206 -6.770454 -2.125845 12.838156 -6.506395 1.620506 -24.136553 -10.890809 9.929772 -67.579968 5.561224 0.000000 0.000000 0.000000 18.253209 7.440473 5.967837 -2.584867 7.835429 1.584024 7.574174 6.044106 -3.897909 -59.326688 -12.875999 33.155067 -0.070486 27.666342 2.403026 0.000000 0.000000 0.000000 
315.440491 41.866005 -53.912609 0.000000 0.000000 0.000000 174.265160 23.148165 166.035629 3.053855 32.659762 -41.421522 115.428517 -10.341132 3.312649 -54.095368 -14.342190 0.634372 -40.274839 -6.690422 5.614337 0.000000 0.000000 0.000000 177.132514 24.959074 158.333620 -82.735707 15.086436 1.580828 87.370585 -0.983935 -1.318132 14.397306 8.814822 16.246167 -14.436105 1.680173 -0.020023 0.000000 0.000000 0.000000 174.540935 15.981359 164.764653 12.280378 9.059612 1.191866 18.136954 8.379343 3.637832 1.247128 -2.345584 -0.246416 0.000000 0.000000 0.000000 26.584942 8.677859 2.485340 8.739489 23.425976 -25.258195 -49.077675 15.021000 15.522785 0.000000 0.000000 0.000000 24.363785 8.218901 3.752724 -2.511416 -7.171062 -5.075904 -3.424239 12.735164 -6.885825 -3.647972 -24.788730 -15.003999 6.819098 -66.235807 3.817671 0.000000 0.000000 0.000000 18.778282 7.539371 5.967993 -2.483758 9.257604 1.639102 5.577554 3.128414 -2.295158 -63.695598 -14.535799 32.335509 -0.392200 27.140254 3.156230 0.000000 0.000000 0.000000 
